<svg width="46" height="46" viewBox="0 0 46 46" fill="none" xmlns="http://www.w3.org/2000/svg">
<path fill-rule="evenodd" clip-rule="evenodd" d="M22.6806 46C35.2067 46 45.3611 35.7025 45.3611 23C45.3611 10.2975 35.2067 0 22.6806 0C10.1544 0 0 10.2975 0 23C0 35.7025 10.1544 46 22.6806 46ZM22.5871 15.6098C22.5871 12.5132 25.2167 10 28.4568 10C31.6969 10 34.3265 12.5132 34.3265 15.6098C34.3265 18.7063 31.6969 21.2195 28.4568 21.2195C25.2167 21.2195 22.5871 18.7063 22.5871 15.6098ZM24.935 15.6098C24.935 17.4722 26.508 18.9756 28.4568 18.9756C30.4055 18.9756 31.9786 17.4722 31.9786 15.6098C31.9786 13.7473 30.4055 12.2439 28.4568 12.2439C26.508 12.2439 24.935 13.7473 24.935 15.6098ZM29.6307 25.7073H31.9786C33.9274 25.7073 35.5004 27.2107 35.5004 29.0732V30.1951L26.1089 33L17.8913 30.8234V32.439H10.8477V20.0976H20.204L27.4355 22.6781C28.7503 23.1493 29.6307 24.361 29.6307 25.7073ZM13.1955 30.1951H15.5434V22.3415H13.1955V30.1951ZM17.8913 28.5122L26.0737 30.6551L33.0352 28.5907C32.8473 28.2205 32.4365 27.9512 31.9786 27.9512H25.698C25.0641 27.9512 24.4419 27.8615 23.8432 27.6707L21.0492 26.7844L21.7888 24.6527L24.5828 25.539C24.935 25.6512 27.2828 25.7073 27.2828 25.7073C27.2828 25.2922 27.0128 24.922 26.6137 24.7761L19.7814 22.3415H17.8913V28.5122Z" fill="#FF9898"/>
</svg>
