<svg width="46" height="46" viewBox="0 0 46 46" fill="none" xmlns="http://www.w3.org/2000/svg">
<path fill-rule="evenodd" clip-rule="evenodd" d="M45.3611 23C45.3611 35.7025 35.2067 46 22.6806 46C10.1544 46 0 35.7025 0 23C0 10.2975 10.1544 0 22.6806 0C35.2067 0 45.3611 10.2975 45.3611 23ZM31.5276 13.7778H19.722C19.1695 13.7778 18.6396 13.9973 18.2489 14.388C17.8582 14.7787 17.6387 15.3086 17.6387 15.8611V24.1944C17.6387 24.747 17.8582 25.2769 18.2489 25.6676C18.6396 26.0583 19.1695 26.2778 19.722 26.2778H29.1317L32.4512 28.8542C32.5499 28.9271 32.6661 28.9726 32.7881 28.986C32.9101 28.9995 33.0334 28.9803 33.1456 28.9305C33.2638 28.8743 33.3637 28.7857 33.4337 28.6751C33.5037 28.5646 33.5411 28.4364 33.5415 28.3055V15.8611C33.5418 15.3204 33.3318 14.8007 32.956 14.412C32.5802 14.0232 32.068 13.7958 31.5276 13.7778ZM15.5553 18.6389V24.1945C15.5553 25.2995 15.9943 26.3593 16.7757 27.1408C17.5571 27.9222 18.6169 28.3611 19.722 28.3611H27.3609V29.1459C27.3705 29.409 27.326 29.6713 27.2301 29.9166C27.1343 30.1618 26.9891 30.3847 26.8035 30.5716C26.618 30.7584 26.3961 30.9052 26.1515 31.0028C25.9069 31.1004 25.6449 31.1467 25.3817 31.1389H16.0484L12.472 33.7709C12.3727 33.8427 12.2561 33.887 12.1341 33.8992C12.0122 33.9114 11.8891 33.891 11.7776 33.8403C11.6617 33.7836 11.564 33.6957 11.4953 33.5865C11.4266 33.4774 11.3897 33.3512 11.3887 33.2223V20.7222C11.3887 20.1697 11.6082 19.6398 11.9989 19.2491C12.3896 18.8584 12.9195 18.6389 13.472 18.6389H15.5553Z" fill="#FF9898"/>
</svg>
