<svg width="15" height="15" viewBox="0 0 15 15" fill="none" xmlns="http://www.w3.org/2000/svg">
<path d="M3.33301 7.91665V4.58331H2.08301C1.75149 4.58331 1.43354 4.71501 1.19912 4.94943C0.964704 5.18385 0.833008 5.50179 0.833008 5.83331V13.3333C0.833628 13.4107 0.855786 13.4864 0.896998 13.5519C0.93821 13.6174 0.996848 13.6701 1.06634 13.7041C1.13329 13.7346 1.20711 13.7468 1.28029 13.7395C1.35347 13.7321 1.42341 13.7056 1.48301 13.6625L3.62884 12.0833H9.22884C9.38676 12.088 9.54396 12.0602 9.6907 12.0016C9.83744 11.9431 9.97059 11.855 10.0819 11.7429C10.1932 11.6308 10.2804 11.497 10.3379 11.3499C10.3954 11.2028 10.4221 11.0454 10.4163 10.8875V10.4166H5.83301C5.16997 10.4166 4.53408 10.1533 4.06524 9.68441C3.5964 9.21557 3.33301 8.57969 3.33301 7.91665Z" fill="#FF9898"/>
<path d="M12.9163 1.66669H5.83301C5.50149 1.66669 5.18354 1.79838 4.94912 2.0328C4.7147 2.26722 4.58301 2.58517 4.58301 2.91669V7.91669C4.58301 8.24821 4.7147 8.56615 4.94912 8.80057C5.18354 9.03499 5.50149 9.16669 5.83301 9.16669H11.4788L13.4705 10.7125C13.5297 10.7563 13.5995 10.7836 13.6727 10.7916C13.7458 10.7997 13.8199 10.7882 13.8872 10.7584C13.9581 10.7246 14.018 10.6715 14.06 10.6051C14.102 10.5388 14.1245 10.4619 14.1247 10.3834V2.91669C14.1249 2.59226 13.9989 2.28047 13.7734 2.04721C13.5479 1.81396 13.2406 1.6775 12.9163 1.66669Z" fill="#FF9898"/>
</svg>
