<svg width="14" height="14" viewBox="0 0 14 14" fill="none" xmlns="http://www.w3.org/2000/svg">
<path d="M10 0C8.16 0 6.66667 1.52976 6.66667 3.41463C6.66667 5.29951 8.16 6.82927 10 6.82927C11.84 6.82927 13.3333 5.29951 13.3333 3.41463C13.3333 1.52976 11.84 0 10 0ZM10 5.46341C8.89333 5.46341 8 4.54829 8 3.41463C8 2.28098 8.89333 1.36585 10 1.36585C11.1067 1.36585 12 2.28098 12 3.41463C12 4.54829 11.1067 5.46341 10 5.46341ZM12 9.56098H10.6667C10.6667 8.74146 10.1667 8.0039 9.42 7.71707L5.31333 6.14634H0V13.6585H4V12.6751L8.66667 14L14 12.2927V11.6098C14 10.4761 13.1067 9.56098 12 9.56098ZM2.66667 12.2927H1.33333V7.5122H2.66667V12.2927ZM8.64667 12.5727L4 11.2683V7.5122H5.07333L8.95333 8.99415C9.18 9.08293 9.33333 9.30829 9.33333 9.56098C9.33333 9.56098 8 9.52683 7.8 9.45854L6.21333 8.91902L5.79333 10.2166L7.38 10.7561C7.72 10.8722 8.07333 10.9268 8.43333 10.9268H12C12.26 10.9268 12.4933 11.0907 12.6 11.3161L8.64667 12.5727Z" fill="white"/>
</svg>
