<svg width="24" height="14" viewBox="0 0 24 14" fill="none" xmlns="http://www.w3.org/2000/svg">
<path d="M6.54545 0H17.4545C19.1905 0 20.8554 0.737498 22.0829 2.05025C23.3104 3.36301 24 5.14348 24 7C24 8.85652 23.3104 10.637 22.0829 11.9497C20.8554 13.2625 19.1905 14 17.4545 14C15.5127 14 13.7782 13.1017 12.5782 11.6667H11.4218C10.2218 13.1017 8.48727 14 6.54545 14C4.80949 14 3.14463 13.2625 1.91712 11.9497C0.689608 10.637 0 8.85652 0 7C0 5.14348 0.689608 3.36301 1.91712 2.05025C3.14463 0.737498 4.80949 0 6.54545 0M5.45455 3.5V5.83333H3.27273V8.16667H5.45455V10.5H7.63636V8.16667H9.81818V5.83333H7.63636V3.5H5.45455ZM15.8182 7C15.3842 7 14.968 7.18437 14.6611 7.51256C14.3542 7.84075 14.1818 8.28587 14.1818 8.75C14.1818 9.21413 14.3542 9.65925 14.6611 9.98744C14.968 10.3156 15.3842 10.5 15.8182 10.5C16.2522 10.5 16.6684 10.3156 16.9753 9.98744C17.2821 9.65925 17.4545 9.21413 17.4545 8.75C17.4545 8.28587 17.2821 7.84075 16.9753 7.51256C16.6684 7.18437 16.2522 7 15.8182 7M19.0909 3.5C18.6569 3.5 18.2407 3.68437 17.9338 4.01256C17.6269 4.34075 17.4545 4.78587 17.4545 5.25C17.4545 5.71413 17.6269 6.15925 17.9338 6.48744C18.2407 6.81563 18.6569 7 19.0909 7C19.5249 7 19.9411 6.81563 20.248 6.48744C20.5549 6.15925 20.7273 5.71413 20.7273 5.25C20.7273 4.78587 20.5549 4.34075 20.248 4.01256C19.9411 3.68437 19.5249 3.5 19.0909 3.5Z" fill="#FF9898"/>
</svg>
