<svg width="24" height="18" viewBox="0 0 24 18" fill="none" xmlns="http://www.w3.org/2000/svg">
<path d="M18.5455 0C16.68 0 15.5455 0.37125 14.8909 0.68625C14.0509 0.25875 13.0909 0 12 0C10.9091 0 9.94909 0.25875 9.10909 0.68625C8.45455 0.37125 7.32 0 5.45455 0C2.18182 0 0 9 0 11.25C0 12.1837 1.44 13.0387 3.42545 13.3875C4.12364 15.9075 7.41818 17.8312 11.4545 18V13.185C10.8109 12.7688 9.81818 12.015 9.81818 11.25C9.81818 10.125 12 10.125 12 10.125C12 10.125 14.1818 10.125 14.1818 11.25C14.1818 12.015 13.1891 12.7688 12.5455 13.185V18C16.5818 17.8312 19.8764 15.9075 20.5745 13.3875C22.56 13.0387 24 12.1837 24 11.25C24 9 21.8182 0 18.5455 0ZM3.43636 11.1037C2.89091 10.9687 2.46545 10.8112 2.18182 10.6875C2.45455 7.57125 4.58182 2.7 5.50909 2.25C6.09818 2.25 6.54545 2.3175 6.94909 2.37375C4.65818 4.9725 3.75273 9.045 3.43636 11.1037ZM8.72727 9C8.43795 9 8.16047 8.88147 7.95588 8.67049C7.7513 8.45952 7.63636 8.17337 7.63636 7.875C7.63636 7.2675 8.12727 6.75 8.72727 6.75C9.0166 6.75 9.29408 6.86853 9.49866 7.07951C9.70325 7.29048 9.81818 7.57663 9.81818 7.875C9.81818 8.505 9.32727 9 8.72727 9ZM15.2727 9C14.9834 9 14.7059 8.88147 14.5013 8.67049C14.2968 8.45952 14.1818 8.17337 14.1818 7.875C14.1818 7.2675 14.6727 6.75 15.2727 6.75C15.5621 6.75 15.8395 6.86853 16.0441 7.07951C16.2487 7.29048 16.3636 7.57663 16.3636 7.875C16.3636 8.505 15.8727 9 15.2727 9ZM20.5636 11.1037C20.2473 9.045 19.3418 4.9725 17.0509 2.37375C17.4545 2.3175 17.9018 2.25 18.4909 2.25C19.4182 2.7 21.5455 7.57125 21.8182 10.6875C21.5455 10.8112 21.12 10.9687 20.5636 11.1037Z" fill="#FF9898"/>
</svg>
